<?xml version="1.0" encoding="UTF-8" standalone="no"?>
<svg
   xmlns:dc="http://purl.org/dc/elements/1.1/"
   xmlns:cc="http://creativecommons.org/ns#"
   xmlns:rdf="http://www.w3.org/1999/02/22-rdf-syntax-ns#"
   xmlns:svg="http://www.w3.org/2000/svg"
   xmlns="http://www.w3.org/2000/svg"
   xmlns:sodipodi="http://sodipodi.sourceforge.net/DTD/sodipodi-0.dtd"
   xmlns:inkscape="http://www.inkscape.org/namespaces/inkscape"
   version="1.1"
   x="0px"
   y="0px"
   viewBox="0 0 100 100"
   enable-background="new 0 0 100 100"
   xml:space="preserve"
   id="svg2"
   inkscape:version="0.48.3.1 r9886"
   width="100%"
   height="100%"
   sodipodi:docname="noun_210738_cc.svg"><metadata
     id="metadata14"><rdf:RDF><cc:Work
         rdf:about=""><dc:format>image/svg+xml</dc:format><dc:type
           rdf:resource="http://purl.org/dc/dcmitype/StillImage" /></cc:Work></rdf:RDF></metadata><defs
     id="defs12" /><sodipodi:namedview
     pagecolor="#ffffff"
     bordercolor="#666666"
     borderopacity="1"
     objecttolerance="10"
     gridtolerance="10"
     guidetolerance="10"
     inkscape:pageopacity="0"
     inkscape:pageshadow="2"
     inkscape:window-width="1920"
     inkscape:window-height="1041"
     id="namedview10"
     showgrid="false"
     inkscape:snap-page="true"
     showguides="true"
     inkscape:guide-bbox="true"
     inkscape:zoom="5.6568543"
     inkscape:cx="112.60985"
     inkscape:cy="58.687062"
     inkscape:window-x="1366"
     inkscape:window-y="0"
     inkscape:window-maximized="1"
     inkscape:current-layer="svg2" /><path
     d="m 94.823223,49.175514 h -10.019 c -0.395,-18.732 -15.499,-33.836 -34.231,-34.231 v -10.019 h -1.5 v 10.019 c -18.732,0.395 -33.836,15.499 -34.231,34.231 H 4.8232233 v 1.5 H 14.842223 c 0.395,18.732 15.499,33.836 34.231,34.231 v 10.019 h 1.5 v -10.019 c 18.732,-0.395 33.836,-15.499 34.231,-34.231 h 10.019 v -1.5 z m -11.519,0 h -16.019 c 0,0 0,0 0,-10e-4 -0.385,-9.063 -7.648,-16.326 -16.712,-16.712 0,0 0,0 -10e-4,0 v -16.018 c 17.877,0.396 32.336,14.855 32.732,32.731 z m -49.481,0.75 c 0,-8.822 7.178,-16 16,-16 v 16 h 16 c 0,8.822 -7.178,16 -16,16 v -16 h -16 z m 15.25,-33.481 v 16.019 c -9.064,0.385 -16.327,7.648 -16.712,16.712 h -16.019 c 0.396,-17.876 14.855,-32.335 32.731,-32.731 z m -32.731,34.231 h 16.019 c 0,0 0,0 0,10e-4 0.385,9.063 7.648,16.326 16.712,16.712 0,0 0,0 0.001,0 v 16.019 c -17.877,-0.397 -32.336,-14.856 -32.732,-32.732 z m 34.231,32.731 v -16.019 c 9.064,-0.385 16.327,-7.648 16.712,-16.712 h 16.019 c -0.396,17.876 -14.855,32.335 -32.731,32.731 z"
     id="path4"
     inkscape:connector-curvature="0" /></svg>